<svg width="85" height="94" viewBox="0 0 85 94" fill="none" xmlns="http://www.w3.org/2000/svg">
<path d="M32.9365 63.1627L33.5353 63.4927C36.3656 65.0528 39.5812 65.8776 42.833 65.8776C47.9863 65.8776 52.8307 63.8713 56.4744 60.2275C60.1191 56.5847 62.1245 51.7394 62.1245 46.5861C62.1245 41.4338 60.1191 36.5885 56.4744 32.9457C52.8307 29.301 47.9863 27.2946 42.833 27.2946C37.6807 27.2946 32.8354 29.301 29.1917 32.9457C25.5479 36.5885 23.5415 41.4338 23.5415 46.5861C23.5415 49.8141 24.354 53.0077 25.8922 55.8218L26.2183 56.4188L23.7513 65.624L32.9365 63.1627ZM42.833 67.8049C39.2875 67.8049 35.7811 66.9133 32.6857 65.2244L23.9563 67.5627C23.8047 67.6046 23.6502 67.6247 23.4958 67.6247C22.9608 67.6247 22.442 67.3662 22.1111 66.9352C21.7793 66.5013 21.6696 65.9482 21.8117 65.418L24.1566 56.6648C22.4935 53.5875 21.6152 50.105 21.6152 46.5861C21.6152 40.9188 23.8219 35.5901 27.8289 31.583C31.837 27.575 37.1657 25.3674 42.833 25.3674C48.5013 25.3674 53.83 27.575 57.8371 31.583C61.8451 35.5901 64.0527 40.9188 64.0527 46.5861C64.0527 52.2544 61.8451 57.5822 57.8371 61.5902C53.83 65.5982 48.5013 67.8049 42.833 67.8049Z" fill="white"/>
<path d="M61.9682 27.9346C56.8578 22.8242 50.0624 20.0091 42.834 20.0091C35.6066 20.0091 28.8122 22.8242 23.7018 27.9346C18.5904 33.0459 15.7754 39.8413 15.7754 47.0678C15.7754 49.5748 16.1149 52.0294 16.77 54.38L18.4588 53.907C17.8466 51.73 17.5195 49.4365 17.5195 47.0678C17.5195 33.1088 28.8751 21.7533 42.834 21.7533C56.7929 21.7533 68.1495 33.1088 68.1495 47.0678C68.1495 61.0267 56.7929 72.3832 42.834 72.3832V74.1264C50.0624 74.1264 56.8578 71.3123 61.9682 66.2019C67.0786 61.0906 69.8927 54.2952 69.8927 47.0678C69.8927 39.8413 67.0786 33.0459 61.9682 27.9346Z" fill="white"/>
<mask id="mask0_41_6425" style="mask-type:luminance" maskUnits="userSpaceOnUse" x="66" y="40" width="8" height="16">
<path d="M66.334 40.1403H73.8551V55.2683H66.334V40.1403Z" fill="white"/>
</mask>
<g mask="url(#mask0_41_6425)">
<path d="M73.3662 44.7379L73.3681 44.5567C73.3891 42.8297 72.1504 41.3841 70.4873 41.1104L68.8604 40.8977C68.8347 40.8224 68.7984 40.749 68.7527 40.6822C68.6697 40.5649 68.5658 40.4619 68.4418 40.378C68.2034 40.2178 67.9125 40.1577 67.6274 40.1902H67.6188C66.9875 40.2722 66.5365 40.8319 66.5937 41.4661C66.9627 45.5628 66.8845 49.7091 66.361 53.7886C66.28 54.4218 66.7291 55.013 67.3642 55.1055L67.3766 55.1074C67.4834 55.1227 67.5921 55.1246 67.6989 55.1103C68.1576 55.0512 68.5324 54.7308 68.6716 54.2997C68.8185 54.3055 68.9834 54.3036 68.9834 54.3036C69.3496 54.3245 70.0572 54.3093 70.2517 54.2778C70.2632 54.2759 70.2737 54.2769 70.2851 54.273C71.9797 54.0556 73.2718 52.6014 73.2918 50.8925L73.2947 50.7247C73.6151 50.3385 73.7944 49.8569 73.8039 49.3505L73.864 46.1817C73.8735 45.6515 73.6981 45.1451 73.3662 44.7379Z" fill="white"/>
</g>
<mask id="mask1_41_6425" style="mask-type:luminance" maskUnits="userSpaceOnUse" x="12" y="39" width="8" height="17">
<path d="M12 39.9827H19.6699V55.3625H12V39.9827Z" fill="white"/>
</mask>
<g mask="url(#mask1_41_6425)">
<path d="M12.5177 44.7423L12.5158 44.5611C12.4938 42.8341 13.7326 41.3884 15.3957 41.1148L17.0225 40.9021C17.0492 40.8268 17.0845 40.7533 17.1312 40.6866C17.2133 40.5693 17.3182 40.4663 17.4421 40.3824C17.6796 40.2222 17.9714 40.1621 18.2565 40.1945H18.2641C18.8964 40.2765 19.3465 40.8363 19.2893 41.4704C18.9202 45.5671 18.9984 49.7134 19.5229 53.793C19.604 54.4262 19.1548 55.0174 18.5197 55.1099L18.5063 55.1118C18.3995 55.1271 18.2908 55.129 18.185 55.1147C17.7253 55.0556 17.3506 54.7351 17.2123 54.3041C17.0645 54.3098 16.9005 54.3079 16.9005 54.3079C16.5333 54.3289 15.8267 54.3136 15.6322 54.2822C15.6207 54.2803 15.6093 54.2812 15.5978 54.2774C13.9042 54.06 12.6111 52.6057 12.5911 50.8969L12.5892 50.729C12.2688 50.3428 12.0886 49.8612 12.08 49.3549L12.0199 46.186C12.0104 45.6558 12.1849 45.1495 12.5177 44.7423Z" fill="white"/>
</g>
<path d="M60.1632 25.6877C60.0993 25.1746 59.8351 24.7236 59.4203 24.4194C54.6008 20.8738 48.8658 19 42.8332 19C36.8017 19 31.0657 20.8738 26.2462 24.4194C25.8314 24.7236 25.5682 25.1746 25.5043 25.6877C25.4413 26.1969 25.592 26.7176 25.9181 27.1133L25.9372 27.1371C26.2948 27.5701 26.8222 27.819 27.3848 27.819C27.7843 27.819 28.1658 27.694 28.4891 27.4576C32.6773 24.386 37.638 22.762 42.8332 22.762C48.0294 22.762 52.9901 24.386 57.1774 27.4576C57.4997 27.694 57.8821 27.819 58.2826 27.819C58.8443 27.819 59.3717 27.5701 59.7293 27.1371L59.7483 27.1133C60.0745 26.7176 60.2261 26.1969 60.1632 25.6877Z" fill="white"/>
<mask id="mask2_41_6425" style="mask-type:luminance" maskUnits="userSpaceOnUse" x="36" y="70" width="13" height="6">
<path d="M36.8066 70.9835H48.8364V75.1203H36.8066V70.9835Z" fill="white"/>
</mask>
<g mask="url(#mask2_41_6425)">
<path d="M46.8357 75.1196H38.8425C37.7392 75.1196 36.8438 74.2241 36.8438 73.1208V73.0798C36.8438 71.9765 37.7392 71.082 38.8425 71.082H46.8357C47.939 71.082 48.8344 71.9765 48.8344 73.0798V73.1208C48.8344 74.2241 47.939 75.1196 46.8357 75.1196Z" fill="white"/>
</g>
<path d="M34.8129 49.5082H31.7108L34.2951 46.573C34.6089 46.2192 34.8749 45.8396 35.0857 45.4477C35.3021 45.0443 35.4118 44.6486 35.4118 44.27C35.4118 43.6673 35.2945 43.1333 35.0618 42.6813C34.8282 42.2264 34.4916 41.8698 34.0605 41.6228C33.6314 41.3758 33.1279 41.2518 32.5634 41.2518C31.9988 41.2518 31.482 41.3844 31.029 41.6466C30.577 41.9089 30.2146 42.2741 29.9524 42.7299C29.6892 43.1877 29.5566 43.7055 29.5566 44.27C29.5566 44.4684 29.632 44.6448 29.7788 44.7926C29.9266 44.9404 30.1069 45.0148 30.3138 45.0148C30.5293 45.0148 30.7115 44.9394 30.8555 44.7907C30.9985 44.6429 31.071 44.4684 31.071 44.27C31.071 43.9858 31.1368 43.7169 31.2674 43.4709C31.3971 43.2268 31.5802 43.0284 31.8091 42.8844C32.037 42.7404 32.2906 42.6679 32.5634 42.6679C32.9963 42.6679 33.3253 42.8081 33.5723 43.0952C33.8202 43.3841 33.9461 43.7789 33.9461 44.27C33.9461 44.6638 33.7001 45.1445 33.2128 45.7014L29.7626 49.7342C29.6263 49.8734 29.5566 50.0517 29.5566 50.2653C29.5566 50.4713 29.6291 50.6506 29.7712 50.7975C29.9152 50.9462 30.0973 51.0215 30.3138 51.0215H34.8129C35.0275 51.0215 35.2115 50.9472 35.3593 50.7994C35.5072 50.6515 35.5815 50.4723 35.5815 50.2653C35.5815 50.0575 35.5072 49.8772 35.3593 49.7304C35.2115 49.5826 35.0275 49.5082 34.8129 49.5082Z" fill="white"/>
<path d="M40.828 43.9944V47.477H38.176L40.828 43.9944ZM43.4199 47.6401C43.2817 47.5323 43.1024 47.477 42.8859 47.477H42.2928V42.0204C42.2928 41.8097 42.2289 41.6285 42.102 41.4807C41.9695 41.3281 41.795 41.2518 41.5842 41.2518C41.3382 41.2518 41.1303 41.3596 40.9653 41.5722L36.3079 47.6772C36.2087 47.806 36.1582 47.9567 36.1582 48.1245C36.1582 48.3219 36.2278 48.4973 36.3651 48.6442C36.5053 48.793 36.6903 48.8693 36.9154 48.8693H40.828V50.2653C40.828 50.4704 40.8976 50.6487 41.035 50.7965C41.1742 50.9453 41.3477 51.0215 41.548 51.0215C41.7559 51.0215 41.9342 50.9462 42.0782 50.7975C42.2212 50.6506 42.2928 50.4704 42.2928 50.2653V48.8693H42.8859C43.0909 48.8693 43.2683 48.8025 43.4152 48.67C43.5658 48.5345 43.6431 48.3677 43.6431 48.1731C43.6431 47.9357 43.5687 47.7564 43.4199 47.6401Z" fill="white"/>
<path d="M48.7362 41.2518C48.5893 41.2518 48.4501 41.2909 48.3232 41.3691C48.1945 41.4483 48.0982 41.5598 48.0372 41.7019L44.3782 50.8566C44.3305 50.9701 44.3066 51.0778 44.3066 51.177C44.3066 51.3849 44.381 51.5632 44.5307 51.7072C44.6785 51.8502 44.8578 51.9218 45.0638 51.9218C45.2088 51.9218 45.3461 51.8846 45.472 51.8121C45.6045 51.7358 45.7018 51.6214 45.7618 51.4707L49.4218 42.3142L49.4237 42.3103C49.4609 42.2064 49.4809 42.1005 49.4809 41.9966C49.4809 41.7887 49.4075 41.6113 49.2645 41.4683C49.1205 41.3243 48.9421 41.2518 48.7362 41.2518Z" fill="white"/>
<path d="M55.8965 41.4731C55.7496 41.3262 55.5694 41.2518 55.3625 41.2518H50.7298C50.5143 41.2518 50.3322 41.3243 50.1891 41.4683C50.0451 41.6113 49.9727 41.7935 49.9727 42.008C49.9727 42.2236 50.0451 42.4057 50.1891 42.5487C50.3322 42.6927 50.5143 42.7652 50.7298 42.7652H54.2086L50.8137 49.8143C50.7317 49.9793 50.6898 50.1309 50.6898 50.2653C50.6898 50.4723 50.7651 50.6515 50.9129 50.7994C51.0598 50.9472 51.2362 51.0215 51.4345 51.0215C51.5719 51.0215 51.7054 50.9844 51.8312 50.9119C51.959 50.8385 52.0582 50.7374 52.1269 50.6096L52.1278 50.6058L56.0214 42.3952L56.0223 42.3914C56.0872 42.2426 56.1196 42.1168 56.1196 42.008C56.1196 41.8011 56.0443 41.6218 55.8965 41.4731Z" fill="white"/>
</svg>
