<svg width="85" height="94" viewBox="0 0 85 94" fill="none" xmlns="http://www.w3.org/2000/svg">
<mask id="mask0_41_6451" style="mask-type:luminance" maskUnits="userSpaceOnUse" x="17" y="21" width="52" height="52">
<path d="M17 21H69V73H17V21Z" fill="white"/>
</mask>
<g mask="url(#mask0_41_6451)">
<path d="M28.6983 21H57.2725C60.5012 21 63.4253 22.3098 65.5578 24.4422C67.6602 26.5447 69 29.4997 69 32.6983V61.2725C69 64.5012 67.6602 67.4253 65.5578 69.5578C63.4253 71.6602 60.5012 73 57.2725 73H28.6983C25.4997 73 22.5447 71.6602 20.4422 69.5578C18.3098 67.4253 17 64.5012 17 61.2725V32.6983C17 29.4997 18.3098 26.5447 20.4422 24.4422C22.5447 22.3098 25.4997 21 28.6983 21ZM57.2725 25.6303H28.6983C26.7486 25.6303 24.9816 26.4229 23.7018 27.7018C22.4229 28.9816 21.6303 30.7486 21.6303 32.6983V61.2725C21.6303 63.2214 22.4229 64.9884 23.7018 66.2682C24.9816 67.578 26.7486 68.3697 28.6983 68.3697H57.2725C59.2214 68.3697 60.9884 67.578 62.2682 66.2682C63.578 64.9884 64.3697 63.2214 64.3697 61.2725V32.6983C64.3697 30.7486 63.578 28.9816 62.2682 27.7018C60.9884 26.4229 59.2214 25.6303 57.2725 25.6303Z" fill="white"/>
</g>
<path d="M57.5769 30.0784C58.2168 30.0784 58.8258 30.322 59.2212 30.7492C59.6484 31.1755 59.922 31.7545 59.922 32.3936C59.922 33.0335 59.6484 33.6425 59.2212 34.0388C58.8258 34.4651 58.2168 34.7396 57.5769 34.7396C56.9369 34.7396 56.3579 34.4651 55.9316 34.0388C55.5053 33.6425 55.2617 33.0335 55.2617 32.3936C55.2617 31.7545 55.5053 31.1755 55.9316 30.7492C56.3579 30.322 56.9369 30.0784 57.5769 30.0784Z" fill="white"/>
<path d="M42.9849 34.375C46.4881 34.375 49.6258 35.8066 51.91 38.0608C54.1952 40.3459 55.6268 43.5137 55.6268 46.9868C55.6268 50.49 54.1952 53.6277 51.91 55.912C49.6258 58.1971 46.4881 59.6287 42.9849 59.6287C39.5118 59.6287 36.344 58.1971 34.0589 55.912C31.8047 53.6277 30.373 50.49 30.373 46.9868C30.373 43.5137 31.8047 40.3459 34.0589 38.0608C36.344 35.8066 39.5118 34.375 42.9849 34.375ZM48.6205 41.3813C47.1889 39.9496 45.1782 39.0352 42.9849 39.0352C40.7916 39.0352 38.811 39.9496 37.3793 41.3813C35.9477 42.8129 35.0333 44.7935 35.0333 46.9868C35.0333 49.1802 35.9477 51.1899 37.3793 52.6224C38.811 54.054 40.7916 54.9375 42.9849 54.9375C45.1782 54.9375 47.1889 54.054 48.6205 52.6224C50.0521 51.1899 50.9356 49.1802 50.9356 46.9868C50.9356 44.7935 50.0521 42.8129 48.6205 41.3813Z" fill="white"/>
</svg>
