<svg width="85" height="94" viewBox="0 0 85 94" fill="none" xmlns="http://www.w3.org/2000/svg">
<mask id="mask0_41_6463" style="mask-type:luminance" maskUnits="userSpaceOnUse" x="16" y="18" width="53" height="53">
<path d="M16 18H69V71H16V18Z" fill="white"/>
</mask>
<g mask="url(#mask0_41_6463)">
<path d="M42.5166 18C27.8693 18 16 29.8693 16 44.5166C16 59.1639 27.8693 71.0324 42.5166 71.0324C57.163 71.0324 69.0324 59.1639 69.0324 44.5166C69.0099 29.8693 57.1406 18 42.5166 18ZM56.796 34.2774L51.6305 58.4973C51.3777 59.7145 49.9545 60.2426 48.9677 59.5076L36.7079 50.3703L50.2532 38.134C50.2532 38.134 51.1717 37.3765 50.9189 37.1471C50.6436 36.8718 49.6334 37.4683 49.1278 37.8128C48.6006 38.2032 32.5302 48.3507 32.5302 48.3507L24.3798 45.8247C23.4613 45.5494 23.4613 44.2872 24.7927 43.7358L54.7296 32.211C56.0385 31.5687 57.0713 33.0377 56.796 34.2774Z" fill="white"/>
</g>
</svg>
