<svg width="961" height="162" viewBox="0 0 961 162" fill="none" xmlns="http://www.w3.org/2000/svg">
<path d="M116.816 103.016L123.848 89.7344V162H116.816V103.016ZM130.879 76.0625L137.91 62.7812V162H130.879V76.0625ZM144.941 49.5L151.973 36.1211V162H144.941V49.5ZM97.7734 99.6953L93.7695 92.3711L142.207 0.28125H150.117L97.7734 99.6953ZM89.668 84.3633L85.5664 76.9414L126.191 0.28125H134.199L89.668 84.3633ZM42.5977 90.5156L49.6289 103.797V162H42.5977V90.5156ZM28.5352 63.7578L35.5664 77.0391V162H28.5352V63.7578ZM14.4727 37L21.5039 50.3789V162H14.4727V37ZM71.3086 119.812H63.3984L7.44141 13.6602V162H0.410156V0.28125H8.32031L71.3086 119.812ZM87.2266 119.812H79.2188L16.3281 0.28125H24.3359L87.2266 119.812ZM159.004 13.6602L103.047 119.812H95.0391L32.2461 0.28125H40.1562L99.1406 112.391L158.027 0.28125H166.035V162H159.004V13.6602ZM181.465 7.3125V0.28125H286.934V7.3125H181.465ZM181.465 21.375V14.3438H286.934V21.375H181.465ZM181.465 35.4375V28.4062H286.934V35.4375H258.809V162H251.777V35.4375H244.746V162H237.715V35.4375H230.684V162H223.652V35.4375H216.621V162H209.59V35.4375H181.465ZM356.074 81.5312H398.457C404.902 81.5312 410.339 79.4479 414.766 75.2812C419.258 71.1146 421.504 65.1901 421.504 57.5078C421.504 51.8438 419.16 46.7656 414.473 42.2734C409.785 37.7161 404.447 35.4375 398.457 35.4375H338.105V162H331.074V28.4062H398.457C406.4 28.4062 413.398 31.3685 419.453 37.293C425.508 43.1523 428.535 49.8906 428.535 57.5078C428.535 66.8828 425.605 74.4023 419.746 80.0664C413.887 85.7305 406.79 88.5625 398.457 88.5625H356.074V81.5312ZM356.074 95.5938H398.457C408.613 95.5938 417.337 92.0456 424.629 84.9492C431.921 77.7878 435.566 68.6406 435.566 57.5078C435.566 47.9375 431.823 39.5391 424.336 32.3125C416.914 25.0208 408.288 21.375 398.457 21.375H324.043V162H317.012V14.3438H398.457C406.204 14.3438 413.464 16.3294 420.234 20.3008C427.07 24.2721 432.507 29.6107 436.543 36.3164C440.579 42.957 442.598 50.0208 442.598 57.5078C442.598 70.3333 438.236 81.0755 429.512 89.7344C420.853 98.3281 410.501 102.625 398.457 102.625H356.074V95.5938ZM356.074 109.656H398.457C407.572 109.656 416.035 107.41 423.848 102.918C431.66 98.4258 437.91 92.1758 442.598 84.168C447.285 76.0951 449.629 67.2083 449.629 57.5078C449.629 48.7188 447.285 40.4831 442.598 32.8008C437.975 25.0534 431.725 18.8685 423.848 14.2461C415.97 9.6237 407.507 7.3125 398.457 7.3125H309.98V162H302.949V0.28125H398.457C408.678 0.28125 418.281 2.91797 427.266 8.19141C436.25 13.3997 443.379 20.431 448.652 29.2852C453.991 38.0742 456.66 47.4818 456.66 57.5078C456.66 69.0964 454.154 79.2852 449.141 88.0742C444.193 96.8633 437.454 103.732 428.926 108.68L447.09 162H439.668L422.285 112C419.681 113.042 417.695 113.758 416.328 114.148L432.637 162H425.215L409.297 115.809C408.711 115.939 406.628 116.167 403.047 116.492L418.184 162H410.762L395.82 116.688H389.473L403.73 162H396.309L381.953 116.688H356.074V109.656ZM352.168 162H345.137V42.4688H398.457C402.819 42.4688 406.562 43.9661 409.688 46.9609C412.878 49.8906 414.473 53.4062 414.473 57.5078C414.473 68.8359 409.134 74.5 398.457 74.5H356.074V67.4688H398.457C401.257 67.4688 403.438 66.7526 405 65.3203C406.628 63.8229 407.441 61.2188 407.441 57.5078C407.441 55.2292 406.562 53.3411 404.805 51.8438C403.112 50.2812 400.996 49.5 398.457 49.5H352.168V162ZM541.523 114.539L544.355 107.508H568.379L571.211 114.539H541.523ZM536.055 128.602L538.789 121.57H573.848L576.875 128.602H536.055ZM530.586 142.664L533.32 135.633H579.414L582.344 142.664H530.586ZM473.457 162H465.84L529.805 0.28125H537.422L601.289 162H593.77L533.613 9.75391L473.457 162ZM534.492 26.4531L538.496 35.4375L488.496 162H480.977L534.492 26.4531ZM542.305 45.0078L546.016 54.6758L503.73 162H496.113L542.305 45.0078ZM549.727 64.3438L553.438 74.207L518.77 162H511.25L549.727 64.3438ZM646.699 162H639.082L575.215 0.28125H582.734L646.699 162ZM567.598 0.28125L631.562 162H624.043L560.078 0.28125H567.598ZM552.461 0.28125L616.426 162H608.809L544.941 0.28125H552.461ZM701.191 119.812V42.4688C701.191 42.4688 717.174 42.4688 749.141 42.4688C756.888 42.4688 763.529 46.2773 769.062 53.8945C774.661 61.4466 777.461 70.5286 777.461 81.1406C777.461 91.8177 774.661 100.932 769.062 108.484C763.529 116.036 756.888 119.812 749.141 119.812H701.191ZM708.223 112.781H749.141C754.935 112.781 759.883 109.689 763.984 103.504C768.151 97.319 770.234 89.8646 770.234 81.1406C770.234 72.3516 768.151 64.8971 763.984 58.7773C759.883 52.5924 754.935 49.5 749.141 49.5H708.223V112.781ZM694.16 126.844H749.141C758.841 126.844 767.174 122.384 774.141 113.465C781.172 104.48 784.688 93.7057 784.688 81.1406C784.688 72.8724 783.06 65.2227 779.805 58.1914C776.615 51.1602 772.285 45.6263 766.816 41.5898C761.413 37.4883 755.521 35.4375 749.141 35.4375H694.16V126.844ZM687.129 133.875V28.4062H749.141C756.758 28.4062 763.854 30.75 770.43 35.4375C777.005 40.125 782.214 46.5378 786.055 54.6758C789.961 62.7487 791.914 71.5703 791.914 81.1406C791.914 90.6458 789.961 99.4674 786.055 107.605C782.214 115.743 777.005 122.156 770.43 126.844C763.854 131.531 756.758 133.875 749.141 133.875H687.129ZM680.098 140.906H749.141C758.06 140.906 766.328 138.237 773.945 132.898C781.628 127.56 787.747 120.301 792.305 111.121C796.862 101.941 799.141 91.9479 799.141 81.1406C799.141 70.3984 796.862 60.4375 792.305 51.2578C787.747 42.013 781.628 34.7214 773.945 29.3828C766.263 24.0443 757.995 21.375 749.141 21.375H680.098V140.906ZM673.066 147.938V14.3438H749.141C759.297 14.3438 768.77 17.3385 777.559 23.3281C786.348 29.2526 793.346 37.3581 798.555 47.6445C803.763 57.931 806.367 69.0964 806.367 81.1406C806.367 93.1849 803.763 104.35 798.555 114.637C793.346 124.923 786.348 133.061 777.559 139.051C768.77 144.975 759.297 147.938 749.141 147.938H673.066ZM666.035 154.969H749.141C757.669 154.969 765.905 153.016 773.848 149.109C781.79 145.203 788.659 139.962 794.453 133.387C800.247 126.811 804.87 118.966 808.32 109.852C811.836 100.672 813.594 91.1016 813.594 81.1406C813.594 71.1797 811.836 61.6419 808.32 52.5273C804.87 43.4128 800.247 35.5677 794.453 28.9922C788.659 22.3516 781.79 17.0781 773.848 13.1719C765.905 9.26562 757.669 7.3125 749.141 7.3125H666.035V154.969ZM749.141 162H659.004V0.28125H749.141C761.836 0.28125 773.685 3.89453 784.688 11.1211C795.69 18.3477 804.447 28.1784 810.957 40.6133C817.533 53.0482 820.82 66.5573 820.82 81.1406C820.82 92.0781 818.867 102.56 814.961 112.586C811.12 122.547 805.977 131.141 799.531 138.367C793.086 145.594 785.436 151.355 776.582 155.652C767.793 159.884 758.646 162 749.141 162ZM871.504 162H864.473V0.28125H871.504V162ZM857.441 162H850.41V0.28125H857.441V162ZM843.379 162H836.348V0.28125H843.379V162ZM885.566 126.844H960.371V133.875H885.566V140.906H960.371V147.938H885.566V154.969H960.371V162H878.535V0.28125H960.371V7.3125H885.566V14.3438H960.371V21.375H885.566V28.4062H960.371V35.4375H885.566V63.5625H923.945V70.5938H885.566V77.625H923.945V84.6562H885.566V91.6875H923.945V98.7188H885.566V126.844Z" fill="url(#paint0_linear_16_78581)"/>
<defs>
<linearGradient id="paint0_linear_16_78581" x1="-9" y1="86.5" x2="969" y2="86.5" gradientUnits="userSpaceOnUse">
<stop stop-color="#1ADBC5"/>
<stop offset="1" stop-color="#0E7569"/>
</linearGradient>
</defs>
</svg>
